<svg xmlns="http://www.w3.org/2000/svg" xmlns:xlink="http://www.w3.org/1999/xlink" width="0" height="0" style="position:absolute">
	
		<symbol id="doc" viewBox="0 0 17 21">
			<path fill="#FFF" fill-rule="evenodd" d="M11.298 12.944h1.417v2.893l.87-.91 1.03.964-2.092 2.187c-.133.137-.276.268-.514.219a.71.71 0 0 1-.508-.212l-2.148-2.188 1.016-.976.929.947v-2.924zm.035-10.502v1.801c0 .765.63 1.386 1.401 1.386h1.842c-.985-.967-2.285-2.247-3.243-3.187zM2.84 1.4c-.783 0-1.422.631-1.422 1.406v15.388c0 .775.639 1.406 1.422 1.406h11.322c.783 0 1.422-.631 1.422-1.406V7.03h-2.849c-1.554 0-2.817-1.25-2.817-2.786V1.4H2.839zm0-1.4h7.725c.183 0 .36.073.493.197.021.017.05.019.07.038l5.666 5.6a.715.715 0 0 1 .189.405c.004.03.018.059.018.09v11.864C17 19.741 15.728 21 14.161 21H2.839C1.274 21 0 19.741 0 18.194V2.806C0 1.259 1.274 0 2.839 0z"></path>
		</symbol>
	
		<symbol id="phone" viewBox="0 0 32 32">
			<g fill="none" fill-rule="evenodd" transform="translate(1 1)"><path fill="#fff" d="M9.523 7.015a.555.555 0 0 0-.332.022c-1.195.466-1.948 2.174-2.125 3.35-.553 3.817 2.457 7.123 5.223 9.297 2.456 1.93 7.17 5.104 9.958 2.042.354-.377.774-.932.752-1.487-.066-.932-.93-1.598-1.593-2.108-.51-.377-1.571-1.42-2.235-1.398-.598.022-.974.644-1.35 1.02l-.664.667c-.11.11-1.527-.821-1.682-.932a11.297 11.297 0 0 1-1.615-1.265c-.487-.466-.93-.976-1.306-1.509-.11-.155-1.018-1.509-.93-1.62 0 0 .775-.843.997-1.176.464-.71.818-1.264.287-2.108-.199-.31-.442-.554-.708-.82-.464-.444-.93-.91-1.46-1.288-.288-.221-.775-.62-1.217-.687z"></path><circle cx="15" cy="15" r="15" stroke="#fff" stroke-width="2"></circle></g>
		</symbol>
	
</svg>
