<?xml version="1.0" encoding="utf-8"?>
<!-- Generator: Adobe Illustrator 11.0, SVG Export Plug-In  -->
<!DOCTYPE svg PUBLIC "-//W3C//DTD SVG 1.0//EN"    "http://www.w3.org/TR/2001/REC-SVG-20010904/DTD/svg10.dtd" [
	<!ENTITY ns_flows "http://ns.adobe.com/Flows/1.0/">
	<!ENTITY ns_svg "http://www.w3.org/2000/svg">
	<!ENTITY ns_xlink "http://www.w3.org/1999/xlink">
]>
<svg  xmlns="&ns_svg;" xmlns:xlink="&ns_xlink;" xmlns:a="http://ns.adobe.com/AdobeSVGViewerExtensions/3.0/"
	 width="460" height="80" viewBox="0 -0.195 460 80" xml:space="preserve">
	<defs>
	</defs>
	<g>
		<g>
			<defs>
				<rect id="XMLID_6_" width="459.754" height="79.805"/> 
			</defs>
			<clipPath id="XMLID_9_">
				<use xlink:href="#XMLID_6_" />
			</clipPath>
			<path style="clip-path:url(#XMLID_9_);fill:#FFFFFF;" d="M44.466,21.738c-3.572-2.979-8.139-4.963-12.902-4.963
				c-3.572,0-8.338,2.084-8.338,6.253c0,4.368,5.261,6.055,8.636,7.146l4.964,1.489C47.248,34.74,55.287,40,55.287,52.111
				c0,7.445-1.787,15.088-7.742,20.149c-5.855,4.964-13.697,7.048-21.24,7.048c-9.43,0-18.661-3.177-26.305-8.537l8.338-15.683
				c4.865,4.269,10.621,7.742,17.271,7.742c4.566,0,9.43-2.283,9.43-7.545c0-5.459-7.643-7.345-11.812-8.535
				C11.019,43.275,2.978,40.101,2.978,25.607c0-15.188,10.818-25.112,25.807-25.112c7.543,0,16.775,2.382,23.426,6.154
				L44.466,21.738z"/>
			<polygon style="clip-path:url(#XMLID_9_);fill:#FFFFFF;" points="91.831,18.959 91.831,31.465 113.768,31.465 113.768,47.945 
				91.831,47.945 91.831,60.844 114.958,60.844 114.958,77.324 72.376,77.324 72.376,2.483 114.958,2.483 114.958,18.96 
				91.831,18.96 "/>
			<path style="clip-path:url(#XMLID_9_);fill:#FFFFFF;" d="M129.417,2.482h27.594c20.844,0,38.016,16.377,38.016,37.42
				c0,21.041-17.271,37.419-38.016,37.419h-27.594V2.482z M148.872,60.846h4.367c11.612,0,21.539-6.352,21.539-20.942
				c0-13.401-8.834-20.944-21.341-20.944h-4.565V60.846z"/>
			<path style="clip-path:url(#XMLID_9_);fill:#FFFFFF;" d="M286.873,38.513c0,24.219-17.371,41.292-41.394,41.292
				c-24.02,0-41.391-17.071-41.391-41.292C204.089,15.881,223.941,0,245.479,0C267.019,0,286.873,15.881,286.873,38.513
				 M224.339,38.612c0,12.905,9.529,22.333,21.141,22.333c11.613,0,21.144-9.43,21.144-22.333c0-10.323-9.526-19.752-21.144-19.752
				C233.867,18.86,224.339,28.29,224.339,38.612"/>
			<polygon style="clip-path:url(#XMLID_9_);fill:#FFFFFF;" points="297.238,2.482 316.692,2.482 352.328,48.24 352.524,48.24 
				352.524,2.482 371.978,2.482 371.978,77.322 352.524,77.322 316.89,31.465 316.692,31.465 316.692,77.322 297.238,77.322 "/>
			<path style="clip-path:url(#XMLID_9_);fill:#FFFFFF;" d="M407.345,64.32l-5.16,13.002h-20.646l28.785-74.839h21.242
				l28.188,74.839h-20.746l-4.861-13.002H407.345z M420.945,25.609h-0.199l-8.039,23.824h16.178L420.945,25.609z"/>
		</g>
	</g>
</svg>
